<mxfile host="www.draw.io" modified="2020-02-07T14:12:37.994Z" agent="Mozilla/5.0 (Windows NT 10.0; WOW64) AppleWebKit/537.36 (KHTML, like Gecko) Chrome/78.0.3904.97 Safari/537.36" etag="ZWDmEvaUC-jA8b9qJf8V" version="12.6.6" type="github">
  <diagram id="K2kimMCqfo-lt254b6mz" name="Page-1">
    <mxGraphModel dx="2062" dy="1122" grid="1" gridSize="10" guides="1" tooltips="1" connect="1" arrows="1" fold="1" page="1" pageScale="1" pageWidth="850" pageHeight="1100" math="0" shadow="0">
      <root>
        <mxCell id="0"/>
        <mxCell id="1" parent="0"/>
        <mxCell id="cxggh6h811UMpMzccYXF-1" value="Branch" style="swimlane;fontStyle=0;childLayout=stackLayout;horizontal=1;startSize=26;fillColor=#e0e0e0;horizontalStack=0;resizeParent=1;resizeParentMax=0;resizeLast=0;collapsible=1;marginBottom=0;swimlaneFillColor=#ffffff;align=center;fontSize=14;" parent="1" vertex="1">
          <mxGeometry x="345" y="400" width="160" height="234" as="geometry"/>
        </mxCell>
        <mxCell id="Hkxheu4Fu56JGGWB1mi--13" value="ID" style="text;strokeColor=none;fillColor=none;spacingLeft=4;spacingRight=4;overflow=hidden;rotatable=0;points=[[0,0.5],[1,0.5]];portConstraint=eastwest;fontSize=12;" vertex="1" parent="cxggh6h811UMpMzccYXF-1">
          <mxGeometry y="26" width="160" height="26" as="geometry"/>
        </mxCell>
        <mxCell id="cxggh6h811UMpMzccYXF-2" value="Name" style="text;strokeColor=none;fillColor=none;spacingLeft=4;spacingRight=4;overflow=hidden;rotatable=0;points=[[0,0.5],[1,0.5]];portConstraint=eastwest;fontSize=12;" parent="cxggh6h811UMpMzccYXF-1" vertex="1">
          <mxGeometry y="52" width="160" height="26" as="geometry"/>
        </mxCell>
        <mxCell id="cxggh6h811UMpMzccYXF-3" value="Phone1" style="text;strokeColor=none;fillColor=none;spacingLeft=4;spacingRight=4;overflow=hidden;rotatable=0;points=[[0,0.5],[1,0.5]];portConstraint=eastwest;fontSize=12;" parent="cxggh6h811UMpMzccYXF-1" vertex="1">
          <mxGeometry y="78" width="160" height="26" as="geometry"/>
        </mxCell>
        <mxCell id="Hkxheu4Fu56JGGWB1mi--1" value="Phone2" style="text;strokeColor=none;fillColor=none;spacingLeft=4;spacingRight=4;overflow=hidden;rotatable=0;points=[[0,0.5],[1,0.5]];portConstraint=eastwest;fontSize=12;" vertex="1" parent="cxggh6h811UMpMzccYXF-1">
          <mxGeometry y="104" width="160" height="26" as="geometry"/>
        </mxCell>
        <mxCell id="Hkxheu4Fu56JGGWB1mi--8" value="Phone3" style="text;strokeColor=none;fillColor=none;spacingLeft=4;spacingRight=4;overflow=hidden;rotatable=0;points=[[0,0.5],[1,0.5]];portConstraint=eastwest;fontSize=12;" vertex="1" parent="cxggh6h811UMpMzccYXF-1">
          <mxGeometry y="130" width="160" height="26" as="geometry"/>
        </mxCell>
        <mxCell id="cxggh6h811UMpMzccYXF-4" value="Flagship&#xa;" style="text;strokeColor=none;fillColor=none;spacingLeft=4;spacingRight=4;overflow=hidden;rotatable=0;points=[[0,0.5],[1,0.5]];portConstraint=eastwest;fontSize=12;" parent="cxggh6h811UMpMzccYXF-1" vertex="1">
          <mxGeometry y="156" width="160" height="26" as="geometry"/>
        </mxCell>
        <mxCell id="Hkxheu4Fu56JGGWB1mi--61" value="Address line" style="text;strokeColor=none;fillColor=none;spacingLeft=4;spacingRight=4;overflow=hidden;rotatable=0;points=[[0,0.5],[1,0.5]];portConstraint=eastwest;fontSize=12;" vertex="1" parent="cxggh6h811UMpMzccYXF-1">
          <mxGeometry y="182" width="160" height="26" as="geometry"/>
        </mxCell>
        <mxCell id="Hkxheu4Fu56JGGWB1mi--62" value="Address_ID" style="text;strokeColor=none;fillColor=none;spacingLeft=4;spacingRight=4;overflow=hidden;rotatable=0;points=[[0,0.5],[1,0.5]];portConstraint=eastwest;fontSize=12;" vertex="1" parent="cxggh6h811UMpMzccYXF-1">
          <mxGeometry y="208" width="160" height="26" as="geometry"/>
        </mxCell>
        <mxCell id="Hkxheu4Fu56JGGWB1mi--3" value="Tables" style="swimlane;fontStyle=0;childLayout=stackLayout;horizontal=1;startSize=26;fillColor=#e0e0e0;horizontalStack=0;resizeParent=1;resizeParentMax=0;resizeLast=0;collapsible=1;marginBottom=0;swimlaneFillColor=#ffffff;align=center;fontSize=14;" vertex="1" parent="1">
          <mxGeometry x="660" y="180" width="160" height="130" as="geometry"/>
        </mxCell>
        <mxCell id="Hkxheu4Fu56JGGWB1mi--4" value="ID" style="text;strokeColor=none;fillColor=none;spacingLeft=4;spacingRight=4;overflow=hidden;rotatable=0;points=[[0,0.5],[1,0.5]];portConstraint=eastwest;fontSize=12;" vertex="1" parent="Hkxheu4Fu56JGGWB1mi--3">
          <mxGeometry y="26" width="160" height="26" as="geometry"/>
        </mxCell>
        <mxCell id="Hkxheu4Fu56JGGWB1mi--5" value="Type" style="text;strokeColor=none;fillColor=none;spacingLeft=4;spacingRight=4;overflow=hidden;rotatable=0;points=[[0,0.5],[1,0.5]];portConstraint=eastwest;fontSize=12;" vertex="1" parent="Hkxheu4Fu56JGGWB1mi--3">
          <mxGeometry y="52" width="160" height="26" as="geometry"/>
        </mxCell>
        <mxCell id="Hkxheu4Fu56JGGWB1mi--10" value="Seat_Count" style="text;strokeColor=none;fillColor=none;spacingLeft=4;spacingRight=4;overflow=hidden;rotatable=0;points=[[0,0.5],[1,0.5]];portConstraint=eastwest;fontSize=12;" vertex="1" parent="Hkxheu4Fu56JGGWB1mi--3">
          <mxGeometry y="78" width="160" height="26" as="geometry"/>
        </mxCell>
        <mxCell id="Hkxheu4Fu56JGGWB1mi--6" value="Branch_ID" style="text;strokeColor=none;fillColor=none;spacingLeft=4;spacingRight=4;overflow=hidden;rotatable=0;points=[[0,0.5],[1,0.5]];portConstraint=eastwest;fontSize=12;" vertex="1" parent="Hkxheu4Fu56JGGWB1mi--3">
          <mxGeometry y="104" width="160" height="26" as="geometry"/>
        </mxCell>
        <mxCell id="Hkxheu4Fu56JGGWB1mi--14" value="" style="edgeStyle=entityRelationEdgeStyle;fontSize=12;html=1;endArrow=ERoneToMany;entryX=0;entryY=0.5;entryDx=0;entryDy=0;exitX=1;exitY=0.5;exitDx=0;exitDy=0;" edge="1" parent="1" source="Hkxheu4Fu56JGGWB1mi--13" target="Hkxheu4Fu56JGGWB1mi--6">
          <mxGeometry width="100" height="100" relative="1" as="geometry">
            <mxPoint x="70" y="440" as="sourcePoint"/>
            <mxPoint x="170" y="340" as="targetPoint"/>
          </mxGeometry>
        </mxCell>
        <mxCell id="Hkxheu4Fu56JGGWB1mi--15" value="OperatorsÂ " style="swimlane;fontStyle=0;childLayout=stackLayout;horizontal=1;startSize=26;fillColor=#e0e0e0;horizontalStack=0;resizeParent=1;resizeParentMax=0;resizeLast=0;collapsible=1;marginBottom=0;swimlaneFillColor=#ffffff;align=center;fontSize=14;" vertex="1" parent="1">
          <mxGeometry x="30" y="450" width="160" height="182" as="geometry"/>
        </mxCell>
        <mxCell id="Hkxheu4Fu56JGGWB1mi--25" value="ID" style="text;strokeColor=none;fillColor=none;spacingLeft=4;spacingRight=4;overflow=hidden;rotatable=0;points=[[0,0.5],[1,0.5]];portConstraint=eastwest;fontSize=12;" vertex="1" parent="Hkxheu4Fu56JGGWB1mi--15">
          <mxGeometry y="26" width="160" height="26" as="geometry"/>
        </mxCell>
        <mxCell id="Hkxheu4Fu56JGGWB1mi--16" value="Name" style="text;strokeColor=none;fillColor=none;spacingLeft=4;spacingRight=4;overflow=hidden;rotatable=0;points=[[0,0.5],[1,0.5]];portConstraint=eastwest;fontSize=12;" vertex="1" parent="Hkxheu4Fu56JGGWB1mi--15">
          <mxGeometry y="52" width="160" height="26" as="geometry"/>
        </mxCell>
        <mxCell id="Hkxheu4Fu56JGGWB1mi--17" value="Surname" style="text;strokeColor=none;fillColor=none;spacingLeft=4;spacingRight=4;overflow=hidden;rotatable=0;points=[[0,0.5],[1,0.5]];portConstraint=eastwest;fontSize=12;" vertex="1" parent="Hkxheu4Fu56JGGWB1mi--15">
          <mxGeometry y="78" width="160" height="26" as="geometry"/>
        </mxCell>
        <mxCell id="Hkxheu4Fu56JGGWB1mi--19" value="PK" style="text;strokeColor=none;fillColor=none;spacingLeft=4;spacingRight=4;overflow=hidden;rotatable=0;points=[[0,0.5],[1,0.5]];portConstraint=eastwest;fontSize=12;" vertex="1" parent="Hkxheu4Fu56JGGWB1mi--15">
          <mxGeometry y="104" width="160" height="26" as="geometry"/>
        </mxCell>
        <mxCell id="Hkxheu4Fu56JGGWB1mi--29" value="Phone" style="text;strokeColor=none;fillColor=none;spacingLeft=4;spacingRight=4;overflow=hidden;rotatable=0;points=[[0,0.5],[1,0.5]];portConstraint=eastwest;fontSize=12;" vertex="1" parent="Hkxheu4Fu56JGGWB1mi--15">
          <mxGeometry y="130" width="160" height="26" as="geometry"/>
        </mxCell>
        <mxCell id="Hkxheu4Fu56JGGWB1mi--18" value="Sitting_Branch_ID" style="text;strokeColor=none;fillColor=none;spacingLeft=4;spacingRight=4;overflow=hidden;rotatable=0;points=[[0,0.5],[1,0.5]];portConstraint=eastwest;fontSize=12;" vertex="1" parent="Hkxheu4Fu56JGGWB1mi--15">
          <mxGeometry y="156" width="160" height="26" as="geometry"/>
        </mxCell>
        <mxCell id="Hkxheu4Fu56JGGWB1mi--20" value="OP_Branch" style="swimlane;fontStyle=0;childLayout=stackLayout;horizontal=1;startSize=26;fillColor=#e0e0e0;horizontalStack=0;resizeParent=1;resizeParentMax=0;resizeLast=0;collapsible=1;marginBottom=0;swimlaneFillColor=#ffffff;align=center;fontSize=14;" vertex="1" parent="1">
          <mxGeometry x="70" y="220" width="160" height="130" as="geometry"/>
        </mxCell>
        <mxCell id="Hkxheu4Fu56JGGWB1mi--21" value="Branch_ID" style="text;strokeColor=none;fillColor=none;spacingLeft=4;spacingRight=4;overflow=hidden;rotatable=0;points=[[0,0.5],[1,0.5]];portConstraint=eastwest;fontSize=12;" vertex="1" parent="Hkxheu4Fu56JGGWB1mi--20">
          <mxGeometry y="26" width="160" height="26" as="geometry"/>
        </mxCell>
        <mxCell id="Hkxheu4Fu56JGGWB1mi--22" value="Operator_ID" style="text;strokeColor=none;fillColor=none;spacingLeft=4;spacingRight=4;overflow=hidden;rotatable=0;points=[[0,0.5],[1,0.5]];portConstraint=eastwest;fontSize=12;" vertex="1" parent="Hkxheu4Fu56JGGWB1mi--20">
          <mxGeometry y="52" width="160" height="26" as="geometry"/>
        </mxCell>
        <mxCell id="Hkxheu4Fu56JGGWB1mi--24" value="Start_Date" style="text;strokeColor=none;fillColor=none;spacingLeft=4;spacingRight=4;overflow=hidden;rotatable=0;points=[[0,0.5],[1,0.5]];portConstraint=eastwest;fontSize=12;" vertex="1" parent="Hkxheu4Fu56JGGWB1mi--20">
          <mxGeometry y="78" width="160" height="26" as="geometry"/>
        </mxCell>
        <mxCell id="Hkxheu4Fu56JGGWB1mi--23" value="End_Date" style="text;strokeColor=none;fillColor=none;spacingLeft=4;spacingRight=4;overflow=hidden;rotatable=0;points=[[0,0.5],[1,0.5]];portConstraint=eastwest;fontSize=12;" vertex="1" parent="Hkxheu4Fu56JGGWB1mi--20">
          <mxGeometry y="104" width="160" height="26" as="geometry"/>
        </mxCell>
        <mxCell id="Hkxheu4Fu56JGGWB1mi--26" value="" style="edgeStyle=entityRelationEdgeStyle;fontSize=12;html=1;endArrow=ERoneToMany;entryX=0;entryY=0.5;entryDx=0;entryDy=0;" edge="1" parent="1" source="Hkxheu4Fu56JGGWB1mi--25" target="Hkxheu4Fu56JGGWB1mi--22">
          <mxGeometry width="100" height="100" relative="1" as="geometry">
            <mxPoint x="30" y="410" as="sourcePoint"/>
            <mxPoint x="150" y="740" as="targetPoint"/>
          </mxGeometry>
        </mxCell>
        <mxCell id="Hkxheu4Fu56JGGWB1mi--28" value="" style="edgeStyle=entityRelationEdgeStyle;fontSize=12;html=1;endArrow=ERoneToMany;exitX=1;exitY=0.5;exitDx=0;exitDy=0;" edge="1" parent="1" source="Hkxheu4Fu56JGGWB1mi--13" target="Hkxheu4Fu56JGGWB1mi--21">
          <mxGeometry width="100" height="100" relative="1" as="geometry">
            <mxPoint x="60" y="450" as="sourcePoint"/>
            <mxPoint x="160" y="350" as="targetPoint"/>
          </mxGeometry>
        </mxCell>
        <mxCell id="Hkxheu4Fu56JGGWB1mi--30" value="" style="edgeStyle=entityRelationEdgeStyle;fontSize=12;html=1;endArrow=ERoneToMany;" edge="1" parent="1" source="Hkxheu4Fu56JGGWB1mi--13" target="Hkxheu4Fu56JGGWB1mi--18">
          <mxGeometry width="100" height="100" relative="1" as="geometry">
            <mxPoint x="210" y="89" as="sourcePoint"/>
            <mxPoint x="150" y="770" as="targetPoint"/>
          </mxGeometry>
        </mxCell>
        <mxCell id="Hkxheu4Fu56JGGWB1mi--31" value="Client" style="swimlane;fontStyle=0;childLayout=stackLayout;horizontal=1;startSize=26;fillColor=#e0e0e0;horizontalStack=0;resizeParent=1;resizeParentMax=0;resizeLast=0;collapsible=1;marginBottom=0;swimlaneFillColor=#ffffff;align=center;fontSize=14;" vertex="1" parent="1">
          <mxGeometry x="70" y="720" width="160" height="156" as="geometry"/>
        </mxCell>
        <mxCell id="Hkxheu4Fu56JGGWB1mi--44" value="ID" style="text;strokeColor=none;fillColor=none;spacingLeft=4;spacingRight=4;overflow=hidden;rotatable=0;points=[[0,0.5],[1,0.5]];portConstraint=eastwest;fontSize=12;" vertex="1" parent="Hkxheu4Fu56JGGWB1mi--31">
          <mxGeometry y="26" width="160" height="26" as="geometry"/>
        </mxCell>
        <mxCell id="Hkxheu4Fu56JGGWB1mi--32" value="Name" style="text;strokeColor=none;fillColor=none;spacingLeft=4;spacingRight=4;overflow=hidden;rotatable=0;points=[[0,0.5],[1,0.5]];portConstraint=eastwest;fontSize=12;" vertex="1" parent="Hkxheu4Fu56JGGWB1mi--31">
          <mxGeometry y="52" width="160" height="26" as="geometry"/>
        </mxCell>
        <mxCell id="Hkxheu4Fu56JGGWB1mi--33" value="Surname" style="text;strokeColor=none;fillColor=none;spacingLeft=4;spacingRight=4;overflow=hidden;rotatable=0;points=[[0,0.5],[1,0.5]];portConstraint=eastwest;fontSize=12;" vertex="1" parent="Hkxheu4Fu56JGGWB1mi--31">
          <mxGeometry y="78" width="160" height="26" as="geometry"/>
        </mxCell>
        <mxCell id="Hkxheu4Fu56JGGWB1mi--35" value="Phone" style="text;strokeColor=none;fillColor=none;spacingLeft=4;spacingRight=4;overflow=hidden;rotatable=0;points=[[0,0.5],[1,0.5]];portConstraint=eastwest;fontSize=12;" vertex="1" parent="Hkxheu4Fu56JGGWB1mi--31">
          <mxGeometry y="104" width="160" height="26" as="geometry"/>
        </mxCell>
        <mxCell id="Hkxheu4Fu56JGGWB1mi--34" value="Comment" style="text;strokeColor=none;fillColor=none;spacingLeft=4;spacingRight=4;overflow=hidden;rotatable=0;points=[[0,0.5],[1,0.5]];portConstraint=eastwest;fontSize=12;" vertex="1" parent="Hkxheu4Fu56JGGWB1mi--31">
          <mxGeometry y="130" width="160" height="26" as="geometry"/>
        </mxCell>
        <mxCell id="Hkxheu4Fu56JGGWB1mi--36" value="ReservationÂ " style="swimlane;fontStyle=0;childLayout=stackLayout;horizontal=1;startSize=26;fillColor=#e0e0e0;horizontalStack=0;resizeParent=1;resizeParentMax=0;resizeLast=0;collapsible=1;marginBottom=0;swimlaneFillColor=#ffffff;align=center;fontSize=14;" vertex="1" parent="1">
          <mxGeometry x="360" y="690" width="160" height="208" as="geometry"/>
        </mxCell>
        <mxCell id="Hkxheu4Fu56JGGWB1mi--37" value="Name" style="text;strokeColor=none;fillColor=none;spacingLeft=4;spacingRight=4;overflow=hidden;rotatable=0;points=[[0,0.5],[1,0.5]];portConstraint=eastwest;fontSize=12;" vertex="1" parent="Hkxheu4Fu56JGGWB1mi--36">
          <mxGeometry y="26" width="160" height="26" as="geometry"/>
        </mxCell>
        <mxCell id="Hkxheu4Fu56JGGWB1mi--38" value="Phone" style="text;strokeColor=none;fillColor=none;spacingLeft=4;spacingRight=4;overflow=hidden;rotatable=0;points=[[0,0.5],[1,0.5]];portConstraint=eastwest;fontSize=12;" vertex="1" parent="Hkxheu4Fu56JGGWB1mi--36">
          <mxGeometry y="52" width="160" height="26" as="geometry"/>
        </mxCell>
        <mxCell id="Hkxheu4Fu56JGGWB1mi--39" value="Branch_ID" style="text;strokeColor=none;fillColor=none;spacingLeft=4;spacingRight=4;overflow=hidden;rotatable=0;points=[[0,0.5],[1,0.5]];portConstraint=eastwest;fontSize=12;" vertex="1" parent="Hkxheu4Fu56JGGWB1mi--36">
          <mxGeometry y="78" width="160" height="26" as="geometry"/>
        </mxCell>
        <mxCell id="Hkxheu4Fu56JGGWB1mi--41" value="Date time" style="text;strokeColor=none;fillColor=none;spacingLeft=4;spacingRight=4;overflow=hidden;rotatable=0;points=[[0,0.5],[1,0.5]];portConstraint=eastwest;fontSize=12;" vertex="1" parent="Hkxheu4Fu56JGGWB1mi--36">
          <mxGeometry y="104" width="160" height="26" as="geometry"/>
        </mxCell>
        <mxCell id="Hkxheu4Fu56JGGWB1mi--42" value="Comment" style="text;strokeColor=none;fillColor=none;spacingLeft=4;spacingRight=4;overflow=hidden;rotatable=0;points=[[0,0.5],[1,0.5]];portConstraint=eastwest;fontSize=12;" vertex="1" parent="Hkxheu4Fu56JGGWB1mi--36">
          <mxGeometry y="130" width="160" height="26" as="geometry"/>
        </mxCell>
        <mxCell id="Hkxheu4Fu56JGGWB1mi--43" value="Client_ID" style="text;strokeColor=none;fillColor=none;spacingLeft=4;spacingRight=4;overflow=hidden;rotatable=0;points=[[0,0.5],[1,0.5]];portConstraint=eastwest;fontSize=12;" vertex="1" parent="Hkxheu4Fu56JGGWB1mi--36">
          <mxGeometry y="156" width="160" height="26" as="geometry"/>
        </mxCell>
        <mxCell id="Hkxheu4Fu56JGGWB1mi--46" value="Operator_ID" style="text;strokeColor=none;fillColor=none;spacingLeft=4;spacingRight=4;overflow=hidden;rotatable=0;points=[[0,0.5],[1,0.5]];portConstraint=eastwest;fontSize=12;" vertex="1" parent="Hkxheu4Fu56JGGWB1mi--36">
          <mxGeometry y="182" width="160" height="26" as="geometry"/>
        </mxCell>
        <mxCell id="Hkxheu4Fu56JGGWB1mi--45" value="" style="edgeStyle=entityRelationEdgeStyle;fontSize=12;html=1;endArrow=ERoneToMany;entryX=0;entryY=0.5;entryDx=0;entryDy=0;" edge="1" parent="1" source="Hkxheu4Fu56JGGWB1mi--44" target="Hkxheu4Fu56JGGWB1mi--43">
          <mxGeometry width="100" height="100" relative="1" as="geometry">
            <mxPoint x="230" y="1080" as="sourcePoint"/>
            <mxPoint x="330" y="980" as="targetPoint"/>
          </mxGeometry>
        </mxCell>
        <mxCell id="Hkxheu4Fu56JGGWB1mi--47" value="" style="edgeStyle=entityRelationEdgeStyle;fontSize=12;html=1;endArrow=ERoneToMany;entryX=0;entryY=0.5;entryDx=0;entryDy=0;exitX=1;exitY=0.5;exitDx=0;exitDy=0;" edge="1" parent="1" source="Hkxheu4Fu56JGGWB1mi--25" target="Hkxheu4Fu56JGGWB1mi--46">
          <mxGeometry width="100" height="100" relative="1" as="geometry">
            <mxPoint x="610" y="790" as="sourcePoint"/>
            <mxPoint x="710" y="690" as="targetPoint"/>
          </mxGeometry>
        </mxCell>
        <mxCell id="Hkxheu4Fu56JGGWB1mi--49" value="" style="edgeStyle=entityRelationEdgeStyle;fontSize=12;html=1;endArrow=ERoneToMany;exitX=1;exitY=0.5;exitDx=0;exitDy=0;" edge="1" parent="1" source="Hkxheu4Fu56JGGWB1mi--13" target="Hkxheu4Fu56JGGWB1mi--39">
          <mxGeometry width="100" height="100" relative="1" as="geometry">
            <mxPoint x="650" y="690" as="sourcePoint"/>
            <mxPoint x="750" y="590" as="targetPoint"/>
          </mxGeometry>
        </mxCell>
        <mxCell id="Hkxheu4Fu56JGGWB1mi--50" value="Country" style="swimlane;fontStyle=0;childLayout=stackLayout;horizontal=1;startSize=26;fillColor=#e0e0e0;horizontalStack=0;resizeParent=1;resizeParentMax=0;resizeLast=0;collapsible=1;marginBottom=0;swimlaneFillColor=#ffffff;align=center;fontSize=14;" vertex="1" parent="1">
          <mxGeometry x="640" y="350" width="160" height="78" as="geometry"/>
        </mxCell>
        <mxCell id="Hkxheu4Fu56JGGWB1mi--51" value="ID" style="text;strokeColor=none;fillColor=none;spacingLeft=4;spacingRight=4;overflow=hidden;rotatable=0;points=[[0,0.5],[1,0.5]];portConstraint=eastwest;fontSize=12;" vertex="1" parent="Hkxheu4Fu56JGGWB1mi--50">
          <mxGeometry y="26" width="160" height="26" as="geometry"/>
        </mxCell>
        <mxCell id="Hkxheu4Fu56JGGWB1mi--52" value="Name" style="text;strokeColor=none;fillColor=none;spacingLeft=4;spacingRight=4;overflow=hidden;rotatable=0;points=[[0,0.5],[1,0.5]];portConstraint=eastwest;fontSize=12;" vertex="1" parent="Hkxheu4Fu56JGGWB1mi--50">
          <mxGeometry y="52" width="160" height="26" as="geometry"/>
        </mxCell>
        <mxCell id="Hkxheu4Fu56JGGWB1mi--54" value="City" style="swimlane;fontStyle=0;childLayout=stackLayout;horizontal=1;startSize=26;fillColor=#e0e0e0;horizontalStack=0;resizeParent=1;resizeParentMax=0;resizeLast=0;collapsible=1;marginBottom=0;swimlaneFillColor=#ffffff;align=center;fontSize=14;" vertex="1" parent="1">
          <mxGeometry x="630" y="489" width="160" height="104" as="geometry"/>
        </mxCell>
        <mxCell id="Hkxheu4Fu56JGGWB1mi--55" value="ID" style="text;strokeColor=none;fillColor=none;spacingLeft=4;spacingRight=4;overflow=hidden;rotatable=0;points=[[0,0.5],[1,0.5]];portConstraint=eastwest;fontSize=12;" vertex="1" parent="Hkxheu4Fu56JGGWB1mi--54">
          <mxGeometry y="26" width="160" height="26" as="geometry"/>
        </mxCell>
        <mxCell id="Hkxheu4Fu56JGGWB1mi--58" value="Name" style="text;strokeColor=none;fillColor=none;spacingLeft=4;spacingRight=4;overflow=hidden;rotatable=0;points=[[0,0.5],[1,0.5]];portConstraint=eastwest;fontSize=12;" vertex="1" parent="Hkxheu4Fu56JGGWB1mi--54">
          <mxGeometry y="52" width="160" height="26" as="geometry"/>
        </mxCell>
        <mxCell id="Hkxheu4Fu56JGGWB1mi--56" value="Country_ID" style="text;strokeColor=none;fillColor=none;spacingLeft=4;spacingRight=4;overflow=hidden;rotatable=0;points=[[0,0.5],[1,0.5]];portConstraint=eastwest;fontSize=12;" vertex="1" parent="Hkxheu4Fu56JGGWB1mi--54">
          <mxGeometry y="78" width="160" height="26" as="geometry"/>
        </mxCell>
        <mxCell id="Hkxheu4Fu56JGGWB1mi--59" value="" style="edgeStyle=entityRelationEdgeStyle;fontSize=12;html=1;endArrow=ERoneToMany;entryX=0;entryY=0.5;entryDx=0;entryDy=0;exitX=1;exitY=0.5;exitDx=0;exitDy=0;" edge="1" parent="1" source="Hkxheu4Fu56JGGWB1mi--51" target="Hkxheu4Fu56JGGWB1mi--56">
          <mxGeometry width="100" height="100" relative="1" as="geometry">
            <mxPoint x="270" y="270" as="sourcePoint"/>
            <mxPoint x="370" y="170" as="targetPoint"/>
          </mxGeometry>
        </mxCell>
        <mxCell id="Hkxheu4Fu56JGGWB1mi--63" value="" style="edgeStyle=entityRelationEdgeStyle;fontSize=12;html=1;endArrow=ERoneToMany;exitX=1;exitY=0.5;exitDx=0;exitDy=0;" edge="1" parent="1" source="Hkxheu4Fu56JGGWB1mi--55" target="Hkxheu4Fu56JGGWB1mi--62">
          <mxGeometry width="100" height="100" relative="1" as="geometry">
            <mxPoint x="680" y="630" as="sourcePoint"/>
            <mxPoint x="780" y="530" as="targetPoint"/>
          </mxGeometry>
        </mxCell>
      </root>
    </mxGraphModel>
  </diagram>
</mxfile>
